# xmcd CD database file
#
# Track frame offsets:
#	150
#	13351
#	26040
#	39616
#	51131
#	60987
#	75216
#	87853
#	98959
#	112041
#	125600
#	137720
#	149351
#	163436
#	176928
#	190152
#	201738
#
# Disc length: 2820 seconds
#
# Revision: 0
# Processed by: cddbd v1.5.1PL2 Copyright (c) Steve Scherf et al.
# Submitted via: CDex 1.51
#
DISCID=fc0b0211
DTITLE=James, Elmore - Shake Your Money Maker
DYEAR=1900
DGENRE=Blues
TTITLE0=Dust My Broom
TTITLE1=The Sky is Crying
TTITLE2=Standing At The Crossroads
TTITLE3=Shake Your Money Maker
TTITLE4=Bobby's Rock
TTITLE5=Strange Angels
TTITLE6=My Baby's Gone
TTITLE7=Look On Yonder Wall
TTITLE8=Pickin' The Blues
TTITLE9=Anna Lee
TTITLE10=Make My Dreams Come True
TTITLE11=Fine Little Mama
TTITLE12=Up Jumped Elmore
TTITLE13=Stranger Blues
TTITLE14=Find My Kind of Woman
TTITLE15=Rolling and Tumbling
TTITLE16=Going Back Home Again
EXTD=
EXTT0=
EXTT1=
EXTT2=
EXTT3=
EXTT4=
EXTT5=
EXTT6=
EXTT7=
EXTT8=
EXTT9=
EXTT10=
EXTT11=
EXTT12=
EXTT13=
EXTT14=
EXTT15=
EXTT16=
PLAYORDER=
